<?xml version='1.0' encoding='UTF-8'?>
<mxGraphModel dx="1000" dy="600" grid="1" gridSize="10" guides="1" tooltips="1" connect="1" arrows="1" folding="1" page="1" pageScale="1" pageWidth="827" pageHeight="1169" math="0" shadow="0"><root><mxCell id="0" /><mxCell id="1" parent="0" /><mxCell id="2" value="Usuario" style="shape=actor" vertex="1" parent="1"><mxGeometry x="40" y="140" width="30" height="60" /></mxCell><mxCell id="3" value="Sistema de Procesamiento de Números" style="rounded=1;whiteSpace=wrap;html=1;" vertex="1" parent="1"><mxGeometry x="120" y="60" width="300" height="300" /></mxCell><mxCell id="4" value="Ingresar Números" style="ellipse;whiteSpace=wrap;html=1;" vertex="1" parent="3"><mxGeometry x="160" y="100" width="140" height="60" /></mxCell><mxCell id="5" value="Ordenar Números" style="ellipse;whiteSpace=wrap;html=1;" vertex="1" parent="3"><mxGeometry x="160" y="160" width="140" height="60" /></mxCell><mxCell id="6" value="Contar Pares e Impares" style="ellipse;whiteSpace=wrap;html=1;" vertex="1" parent="3"><mxGeometry x="160" y="220" width="140" height="60" /></mxCell><mxCell id="14" edge="1" source="2" target="4" parent="1" style="edgeStyle=orthogonalEdgeStyle;rounded=0;html=1;"><mxGeometry relative="1" /></mxCell><mxCell id="15" edge="1" source="2" target="5" parent="1" style="edgeStyle=orthogonalEdgeStyle;rounded=0;html=1;"><mxGeometry relative="1" /></mxCell><mxCell id="16" edge="1" source="2" target="6" parent="1" style="edgeStyle=orthogonalEdgeStyle;rounded=0;html=1;"><mxGeometry relative="1" /></mxCell></root></mxGraphModel>